<svg xmlns="http://www.w3.org/2000/svg" xmlns:xlink="http://www.w3.org/1999/xlink" xmlns:inkscape="http://www.inkscape.org/namespaces/inkscape" version="1.1" width="841.89" height="595.276" viewBox="0 0 841.89 595.276">
<defs>
<clipPath id="clip_1">
<path transform="matrix(1,0,0,-1,0,595.276)" d="M0 595.276H841.89V0H0Z"/>
</clipPath>
</defs>
<g inkscape:groupmode="layer" inkscape:label="Camada 1">
<g clip-path="url(#clip_1)">
<path transform="matrix(1,0,0,-1,185.4049,405.7835)" d="M0 0 3.597 7.981C7.456 5.167 13.212 3.206 18.706 3.206 24.985 3.206 27.536 5.298 27.536 8.11 27.536 16.68 .915 10.793 .915 27.798 .915 35.583 7.194 42.057 20.21 42.057 25.967 42.057 31.854 40.684 36.104 38.002L32.834 29.956C28.582 32.377 24.201 33.555 20.146 33.555 13.866 33.555 11.446 31.199 11.446 28.322 11.446 19.883 38.067 25.705 38.067 8.895 38.067 1.243 31.722-5.298 18.641-5.298 11.38-5.298 4.055-3.139 0 0" fill="#231f20"/>
<path transform="matrix(1,0,0,-1,282.7209,373.1444)" d="M0 0H-14.651V8.633H25.248V0H10.596V-37.152H0Z" fill="#231f20"/>
<path transform="matrix(1,0,0,-1,355.1253,390.15089)" d="M0 0V25.639H10.596V.392C10.596-8.307 14.39-11.905 20.799-11.905 27.275-11.905 31.003-8.307 31.003 .392V25.639H41.468V0C41.468-13.474 33.75-20.93 20.734-20.93 7.718-20.93 0-13.474 0 0" fill="#231f20"/>
<path transform="matrix(1,0,0,-1,469.3847,401.5975)" d="M0 0C9.091 0 15.044 5.429 15.044 14.194 15.044 22.958 9.091 28.387 0 28.387H-9.68V0ZM-20.277 37.086H.523C15.502 37.086 25.77 28.06 25.77 14.194 25.77 .327 15.502-8.699 .523-8.699H-20.277Z" fill="#231f20"/>
<path transform="matrix(1,0,0,-1,0,595.276)" d="M545.301 230.764H555.89706V184.979H545.301Z" fill="#231f20"/>
<path transform="matrix(1,0,0,-1,645.2789,387.40333)" d="M0 0C0 8.699-6.148 14.65-14.324 14.65-22.5 14.65-28.649 8.699-28.649 0-28.649-8.699-22.5-14.652-14.324-14.652-6.148-14.652 0-8.699 0 0M-39.375 0C-39.375 13.604-28.779 23.676-14.324 23.676 .066 23.676 10.727 13.67 10.727 0 10.727-13.672 .066-23.678-14.324-23.678-28.779-23.678-39.375-13.605-39.375 0" fill="#231f20"/>
<path transform="matrix(1,0,0,-1,285.442,265.6138)" d="M0 0C0-6.497-.228-11.921-.678-16.12-1.165-20.658-2.049-23.2-2.705-24.532-3.393-25.929-4.271-26.879-5.466-27.521-7.119-28.407-9.466-29.011-12.444-29.316-16.078-29.689-20.678-29.878-26.115-29.878H-47.738C-53.137-29.878-57.727-29.689-61.383-29.316-64.337-29.014-66.759-28.393-68.387-27.521-69.582-26.879-70.46-25.929-71.148-24.532-71.804-23.2-72.688-20.658-73.175-16.12-73.625-11.921-73.853-6.497-73.853 0V53.863H-98.913V0C-98.913-10.405-98.23-18.699-96.825-25.355-95.262-32.762-92.356-38.644-88.186-42.838-84.006-47.046-78.303-49.931-71.236-51.418-65.03-52.723-57.124-53.385-47.738-53.385H-26.115C-16.729-53.385-8.823-52.723-2.617-51.418 4.45-49.931 10.153-47.046 14.334-42.838 18.503-38.644 21.409-32.762 22.972-25.355 24.377-18.699 25.06-10.405 25.06 0V53.863H0Z" fill="#231f20"/>
<path transform="matrix(1,0,0,-1,336.1328,234.89929)" d="M0 0H45.873V-82.189H70.933V0H116.805V23.149H0Z" fill="#231f20"/>
<path transform="matrix(1,0,0,-1,0,595.276)" d="M481.914 278.188H506.974V383.525H481.914Z" fill="#231f20"/>
<path transform="matrix(1,0,0,-1,0,595.276)" d="M236.653 410.709H211.593V383.52503H236.653Z" fill="#231f20"/>
<path transform="matrix(1,0,0,-1,575.3583,293.9391)" d="M0 0V82.189H-25.06V-23.149H81.127V0Z" fill="#231f20"/>
</g>
</g>
</svg>
